# xmcd CD database file generated by OrangeCD 5.2
#
# Track frame offsets:
#	183
#	23493
#	41843
#	52868
#	73180
#	85270
#	112695
#	124733
#	136120
#	147338
#
# Disc length: 2063 seconds
#
# Revision: 2
# Processed by: cddbd v1.5.1PL0 Copyright (c) Steve Scherf et al.
# Submitted via: OrangeCD 5.2
#
DISCID=7f080d0a
DTITLE=Sir Douglas Quintet - Kansas City
DYEAR=1992
DGENRE=Blues
TTITLE0=Whiter Shade Of Pale
TTITLE1=Mr. Pitiful
TTITLE2=I'll Go Crazy
TTITLE3=Next Time You See Me
TTITLE4=Night Train
TTITLE5=Kansas City
TTITLE6=Crazy Arms
TTITLE7=Anybody Going To San Antone
TTITLE8=Jolie Blonde
TTITLE9=Cotton Eyed Joe
EXTD=
EXTT0=
EXTT1=
EXTT2=
EXTT3=
EXTT4=
EXTT5=
EXTT6=
EXTT7=
EXTT8=
EXTT9=
PLAYORDER=
